<?xml version="1.0" encoding="UTF-8"?><svg version="1.1" width="191px" height="90px" viewBox="0 0 191.0 90.0" xmlns="http://www.w3.org/2000/svg" xmlns:xlink="http://www.w3.org/1999/xlink"><defs><clipPath id="i0"><path d="M24.1194813,0 L24.1194813,34.2743122 L5.5481006,45.0000337 L0,41.7912829 L0,13.9344723 L24.1194813,0 Z"></path></clipPath><clipPath id="i1"><path d="M0,0 L24.1194813,13.9344723 L24.1194813,41.7912829 L18.5713807,45.0000337 L0,34.2743122 L0,0 Z"></path></clipPath><clipPath id="i2"><path d="M5.5481006,0 L24.1194813,10.7257215 L24.1194813,44.9993596 L0,31.0642132 L0,3.19526867 L5.5481006,0 Z"></path></clipPath><clipPath id="i3"><path d="M18.5713807,0 L24.1194813,3.19526867 L24.1194813,31.0648873 L0,45.0000337 L0,10.7257215 L18.5713807,0 Z"></path></clipPath><clipPath id="i4"><path d="M5.8310982,0 L7.24271719,1.4284334 L7.24271719,7.26957327 L5.8310982,8.69868077 L1.41161899,8.69868077 L0,7.26957327 L0,1.4284334 L1.41161899,0 L5.8310982,0 Z M4.9470676,1.44124144 L2.29564959,1.44124144 L1.66968585,2.07490231 L1.66968585,6.62377846 L2.29564959,7.25676523 L4.9470676,7.25676523 L5.57303134,6.62377846 L5.57303134,2.07490231 L4.9470676,1.44124144 Z"></path></clipPath><clipPath id="i5"><path d="M5.61009055,0 L6.99677879,1.40349143 L6.99677879,2.73283105 L5.32709295,2.73283105 L5.32709295,2.02501837 L4.75031688,1.44056733 L2.29564959,1.44056733 L1.66968585,2.07490231 L1.66968585,6.62310435 L2.29564959,7.25609112 L4.75031688,7.25609112 L5.32709295,6.67231419 L5.32709295,5.9638274 L6.99677879,5.9638274 L6.99677879,7.29384113 L5.61009055,8.69800666 L1.41161899,8.69800666 L0,7.26889916 L0,1.4284334 L1.41161899,0 L5.61009055,0 Z"></path></clipPath><clipPath id="i6"><path d="M6.80002808,0 L6.80002808,1.4284334 L4.23485696,1.4284334 L4.23485696,8.69800666 L2.56517112,8.69800666 L2.56517112,1.4284334 L0,1.4284334 L0,0 L6.80002808,0 Z"></path></clipPath><clipPath id="i7"><path d="M4.6647438,0 L7.80669098,8.69800666 L6.11274819,8.69800666 L5.41333983,6.77140796 L2.39335114,6.77140796 L1.69394279,8.69800666 L0,8.69800666 L3.14262098,0 L4.6647438,0 Z M3.90334549,2.07490231 L3.87908855,2.07490231 L2.7740503,5.38005047 L5.04476915,5.38005047 L3.90334549,2.07490231 Z"></path></clipPath><clipPath id="i8"><path d="M1.66968585,0 L1.66968585,8.69800666 L0,8.69800666 L0,0 L1.66968585,0 Z"></path></clipPath><clipPath id="i9"><path d="M1.49853968,0 L5.32776675,5.90248364 L5.35202369,5.90248364 L5.35202369,0 L6.95971958,0 L6.95971958,8.69800666 L5.46252751,8.69800666 L1.63330044,2.80833107 L1.6083697,2.80833107 L1.6083697,8.69800666 L0,8.69800666 L0,0 L1.49853968,0 Z"></path></clipPath><clipPath id="i10"><path d="M1.49853968,0 L5.32776675,5.90248364 L5.35202369,5.90248364 L5.35202369,0 L6.96039339,0 L6.96039339,8.69800666 L5.46252751,8.69800666 L1.63330044,2.80833107 L1.6083697,2.80833107 L1.6083697,8.69800666 L0,8.69800666 L0,0 L1.49853968,0 Z"></path></clipPath><clipPath id="i11"><path d="M5.8310982,0 L7.24271719,1.4284334 L7.24271719,7.26957327 L5.8310982,8.69868077 L1.41229279,8.69868077 L0,7.26957327 L0,1.4284334 L1.41229279,0 L5.8310982,0 Z M4.9470676,1.44124144 L2.29564959,1.44124144 L1.66968585,2.07490231 L1.66968585,6.62377846 L2.29564959,7.25676523 L4.9470676,7.25676523 L5.57303134,6.62377846 L5.57303134,2.07490231 L4.9470676,1.44124144 Z"></path></clipPath><clipPath id="i12"><path d="M1.71887353,0 L3.85483161,6.68512223 L3.87908855,6.68512223 L6.01504664,0 L7.73392017,0 L4.67687227,8.69800666 L3.0563741,8.69800666 L0,0 L1.71887353,0 Z"></path></clipPath><clipPath id="i13"><path d="M4.6647438,0 L7.80736478,8.69800666 L6.11274819,8.69800666 L5.41333983,6.77140796 L2.39335114,6.77140796 L1.69394279,8.69800666 L0,8.69800666 L3.14262098,0 L4.6647438,0 Z M3.90334549,2.07490231 L3.87908855,2.07490231 L2.7740503,5.38005047 L5.04476915,5.38005047 L3.90334549,2.07490231 Z"></path></clipPath><clipPath id="i14"><path d="M6.80070188,0 L6.80070188,1.4284334 L4.23553077,1.4284334 L4.23553077,8.69800666 L2.56584492,8.69800666 L2.56584492,1.4284334 L0,1.4284334 L0,0 L6.80070188,0 Z"></path></clipPath><clipPath id="i15"><path d="M1.67035965,0 L1.67035965,8.69800666 L0,8.69800666 L0,0 L1.67035965,0 Z"></path></clipPath><clipPath id="i16"><path d="M5.83042439,0 L7.24204338,1.4284334 L7.24204338,7.26957327 L5.83042439,8.69868077 L1.41161899,8.69868077 L0,7.26957327 L0,1.4284334 L1.41161899,0 L5.83042439,0 Z M4.94639379,1.44124144 L2.29497579,1.44124144 L1.66901204,2.07490231 L1.66901204,6.62377846 L2.29497579,7.25676523 L4.94639379,7.25676523 L5.57303134,6.62377846 L5.57303134,2.07490231 L4.94639379,1.44124144 Z"></path></clipPath><clipPath id="i17"><path d="M1.49786588,0 L5.32709295,5.90248364 L5.35202369,5.90248364 L5.35202369,0 L6.95971958,0 L6.95971958,8.69800666 L5.46252751,8.69800666 L1.63262664,2.80833107 L1.6083697,2.80833107 L1.6083697,8.69800666 L0,8.69800666 L0,0 L1.49786588,0 Z"></path></clipPath><clipPath id="i18"><path d="M5.22871759,0 L6.55476349,1.34214766 L6.55476349,2.59733548 L4.90933458,2.59733548 L4.90933458,1.85177279 L4.50505229,1.44124144 L2.07464194,1.44124144 L1.66901204,1.85177279 L1.66901204,3.13190258 L2.07464194,3.54108572 L5.32641914,3.54108572 L6.65246505,4.88323338 L6.65246505,7.33159114 L5.3021622,8.69800666 L1.3253721,8.69800666 L0,7.35653311 L0,6.11347923 L1.6440813,6.11347923 L1.6440813,6.84690798 L2.0497112,7.25676523 L4.59062538,7.25676523 L5.00770994,6.83477405 L5.00770994,5.39285851 L4.60275385,4.98300126 L1.34962904,4.98300126 L0.0242569373,3.64152771 L0.0242569373,1.34214766 L1.34962904,0 L5.22871759,0 Z"></path></clipPath><clipPath id="i19"><path d="M15.4644713,0 L7.47315809,36.3593262 L0,36.3593262 L10.1326617,0 L15.4644713,0 Z"></path></clipPath><clipPath id="i20"><path d="M5.33180957,0 L15.4644713,36.3593262 L7.99131322,36.3593262 L0,0 L5.33180957,0 Z"></path></clipPath><clipPath id="i21"><path d="M30.790139,0 L30.790139,11.3816279 L0,11.3816279 L0,0 L30.790139,0 Z M25.4583295,6.90959996 L5.33180957,6.90959996 L5.33180957,8.85237724 L25.4583295,8.85237724 L25.4583295,6.90959996 Z M25.4583295,2.49217474 L5.33180957,2.49217474 L5.33180957,4.43495201 L25.4583295,4.43495201 L25.4583295,2.49217474 Z"></path></clipPath><clipPath id="i22"><path d="M35.0303864,0 L35.0303864,2.47397384 L0,2.47397384 L0,0 L35.0303864,0 Z"></path></clipPath><clipPath id="i23"><path d="M32.9112734,0 L32.9112734,11.3452261 L20.3232706,11.3526413 L20.3232706,13.2691284 L32.9112734,13.2691284 L32.9112734,15.7424281 L20.3232706,15.7424281 L20.3232706,17.6858795 L35.0297126,17.6858795 L35.0297126,20.2737775 L0,20.2737775 L0,17.6858795 L14.991461,17.6858795 L14.991461,15.7424281 L2.11843919,15.7424281 L2.11843919,13.2691284 L14.991461,13.2691284 L14.991461,11.3560118 L2.1204606,11.3641011 L2.1204606,0.0188750048 L2.97619144,0 L32.9112734,0 Z M27.5794639,6.92847497 L20.3232706,6.92847497 L20.3232706,8.87125224 L27.5794639,8.87125224 L27.5794639,6.92847497 Z M14.991461,6.92847497 L7.45294398,6.92847497 L7.45294398,8.87125224 L14.991461,8.87125224 L14.991461,6.92847497 Z M27.5794639,2.49217474 L20.3232706,2.49217474 L20.3232706,4.43562612 L27.5794639,4.43562612 L27.5794639,2.49217474 Z M14.991461,2.49217474 L7.45294398,2.49217474 L7.45294398,4.43562612 L14.991461,4.43562612 L14.991461,2.49217474 Z"></path></clipPath><clipPath id="i24"><path d="M15.8694274,0 L7.82016705,15.8994951 L29.6648867,15.8994951 L21.2544675,0 L26.5869509,0 L37.501225,16.6187676 L32.5184458,16.6187676 L32.4989055,36.3593262 L22.7698523,36.3593262 L19.088862,31.0015212 L27.1670959,31.0015212 L27.1670959,21.2573 L13.3905032,21.2573 L9.16507946,36.3593262 L3.83326989,36.3593262 L8.0586936,21.2573 L3.83326989,21.2573 L3.83326989,16.6187676 L0,16.6187676 L10.5376178,0 L15.8694274,0 Z"></path></clipPath></defs><g clip-path="url(#i0)"><polygon points="0,0 24.1194813,0 24.1194813,45.0000337 0,45.0000337 0,0" stroke="none" fill="#050001"></polygon></g><g transform="translate(24.119481291007386 0.0)"><g clip-path="url(#i1)"><polygon points="0,0 24.1194813,0 24.1194813,45.0000337 0,45.0000337 0,0" stroke="none" fill="#292B2B"></polygon></g></g><g transform="translate(0.00020214114315031395 45.00010111609663)"><g clip-path="url(#i2)"><polygon points="0,0 24.1194813,0 24.1194813,44.9993596 0,44.9993596 0,0" stroke="none" fill="#292B2B"></polygon></g></g><g transform="translate(24.119481291007386 44.99996629463567)"><g clip-path="url(#i3)"><polygon points="0,0 24.1194813,0 24.1194813,45.0000337 0,45.0000337 0,0" stroke="none" fill="#050001"></polygon></g></g><g transform="translate(69.08537447087897 61.856356719614276)"><g clip-path="url(#i4)"><polygon points="0,0 7.24271719,0 7.24271719,8.69868077 0,8.69868077 0,0" stroke="none" fill="#050001"></polygon></g></g><g transform="translate(78.41412088181589 61.85676118400079)"><g clip-path="url(#i5)"><polygon points="0,0 6.99677879,0 6.99677879,8.69800666 0,8.69800666 0,0" stroke="none" fill="#050001"></polygon></g></g><g transform="translate(86.63904188625585 61.856693773272134)"><g clip-path="url(#i6)"><polygon points="0,0 6.80002808,0 6.80002808,8.69800666 0,8.69800666 0,0" stroke="none" fill="#050001"></polygon></g></g><g transform="translate(93.31630291256093 61.85689600546539)"><g clip-path="url(#i7)"><polygon points="0,0 7.80669098,0 7.80669098,8.69800666 0,8.69800666 0,0" stroke="none" fill="#050001"></polygon></g></g><g transform="translate(106.85537982956009 61.85649154107523)"><g clip-path="url(#i8)"><polygon points="0,0 1.66968585,0 1.66968585,8.69800666 0,8.69800666 0,0" stroke="none" fill="#050001"></polygon></g></g><g transform="translate(110.91794515942486 61.85655895180753)"><g clip-path="url(#i9)"><polygon points="0,0 6.95971958,0 6.95971958,8.69800666 0,8.69800666 0,0" stroke="none" fill="#050001"></polygon></g></g><g transform="translate(120.20969974102705 61.85655895180753)"><g clip-path="url(#i10)"><polygon points="0,0 6.96039339,0 6.96039339,8.69800666 0,8.69800666 0,0" stroke="none" fill="#050001"></polygon></g></g><g transform="translate(129.3789567894201 61.856356719614276)"><g clip-path="url(#i11)"><polygon points="0,0 7.24271719,0 7.24271719,8.69868077 0,8.69868077 0,0" stroke="none" fill="#050001"></polygon></g></g><g transform="translate(137.9713703934839 61.85655895180753)"><g clip-path="url(#i12)"><polygon points="0,0 7.73392017,0 7.73392017,8.69800666 0,8.69800666 0,0" stroke="none" fill="#050001"></polygon></g></g><g transform="translate(145.58218660273457 61.85689600546539)"><g clip-path="url(#i13)"><polygon points="0,0 7.80736478,0 7.80736478,8.69800666 0,8.69800666 0,0" stroke="none" fill="#050001"></polygon></g></g><g transform="translate(153.26597576493532 61.856693773272134)"><g clip-path="url(#i14)"><polygon points="0,0 6.80070188,0 6.80070188,8.69800666 0,8.69800666 0,0" stroke="none" fill="#050001"></polygon></g></g><g transform="translate(161.8458566180766 61.85649154107523)"><g clip-path="url(#i15)"><polygon points="0,0 1.67035965,0 1.67035965,8.69800666 0,8.69800666 0,0" stroke="none" fill="#050001"></polygon></g></g><g transform="translate(165.78673297931022 61.856356719614276)"><g clip-path="url(#i16)"><polygon points="0,0 7.24204338,0 7.24204338,8.69868077 0,8.69868077 0,0" stroke="none" fill="#050001"></polygon></g></g><g transform="translate(175.2379095430722 61.85655895180753)"><g clip-path="url(#i17)"><polygon points="0,0 6.95971958,0 6.95971958,8.69800666 0,8.69800666 0,0" stroke="none" fill="#050001"></polygon></g></g><g transform="translate(184.34652424829466 61.856356719614276)"><g clip-path="url(#i18)"><polygon points="0,0 6.65246505,0 6.65246505,8.69800666 0,8.69800666 0,0" stroke="none" fill="#050001"></polygon></g></g><g transform="translate(69.08503756897314 19.89506396155048)"><g clip-path="url(#i19)"><polygon points="0,0 15.4644713,0 15.4644713,36.3593262 0,36.3593262 0,0" stroke="none" fill="#050001"></polygon></g></g><g transform="translate(89.9262611684741 19.89506396155048)"><g clip-path="url(#i20)"><polygon points="0,0 15.4644713,0 15.4644713,36.3593262 0,36.3593262 0,0" stroke="none" fill="#050001"></polygon></g></g><g transform="translate(158.09074796809273 19.895333604476036)"><g clip-path="url(#i21)"><polygon points="0,0 30.790139,0 30.790139,11.3816279 0,11.3816279 0,0" stroke="none" fill="#050001"></polygon></g></g><g transform="translate(155.96961356469455 32.39193498010354)"><g clip-path="url(#i22)"><polygon points="0,0 35.0303864,0 35.0303864,2.47397384 0,2.47397384 0,0" stroke="none" fill="#050001"></polygon></g></g><g transform="translate(155.97008522736314 35.98014079854693)"><g clip-path="url(#i23)"><polygon points="0,0 35.0297126,0 35.0297126,20.2737775 0,20.2737775 0,0" stroke="none" fill="#050001"></polygon></g></g><g transform="translate(111.9064153531306 19.894929140085875)"><g clip-path="url(#i24)"><polygon points="0,0 37.501225,0 37.501225,36.3593262 0,36.3593262 0,0" stroke="none" fill="#050001"></polygon></g></g></svg>